HIERARCHY
ROOT Hips
{
	OFFSET 0.0000 0.0680 0.0000
	CHANNELS 6 Xposition Yposition Zposition Yrotation Xrotation Zrotation
	JOINT Spine
	{
		OFFSET 0.0000 0.0680 0.0000
		CHANNELS 3 Yrotation Xrotation Zrotation
		JOINT Spine1
		{
			OFFSET 0.0000 0.2231 0.0000
			CHANNELS 3 Yrotation Xrotation Zrotation
			JOINT Neck
			{
				OFFSET 0.0000 0.2443 0.0000
				CHANNELS 3 Yrotation Xrotation Zrotation
				JOINT Head
				{
					OFFSET 0.0000 0.1518 0.0196
					CHANNELS 3 Yrotation Xrotation Zrotation
				}
			}
			JOINT LeftShoulder
			{
				OFFSET 0.0383 0.2087 -0.0017
				CHANNELS 3 Yrotation Xrotation Zrotation
				JOINT LeftArm
				{
					OFFSET 0.1028 0.0000 0.0000
					CHANNELS 3 Yrotation Xrotation Zrotation
					JOINT LeftForeArm
					{
						OFFSET 0.2888 0.0000 0.0000
						CHANNELS 3 Yrotation Xrotation Zrotation
						JOINT LeftHand
						{
							OFFSET 0.2596 0.0000 0.0000
							CHANNELS 3 Yrotation Xrotation Zrotation
							JOINT LeftHandIndex1
							{
								OFFSET 0.0843 0.0000 0.0328
								CHANNELS 3 Yrotation Xrotation Zrotation
								JOINT LeftHandIndex2
								{
									OFFSET 0.0372 0.0000 0.0000
									CHANNELS 3 Yrotation Xrotation Zrotation
									JOINT LeftHandIndex3
									{
										OFFSET 0.0265 0.0000 0.0000
										CHANNELS 3 Yrotation Xrotation Zrotation
									}
								}
							}
							JOINT LeftHandMiddle1
							{
								OFFSET 0.0843 0.0000 0.0109
								CHANNELS 3 Yrotation Xrotation Zrotation
								JOINT LeftHandMiddle2
								{
									OFFSET 0.0414 0.0000 0.0000
									CHANNELS 3 Yrotation Xrotation Zrotation
									JOINT LeftHandMiddle3
									{
										OFFSET 0.0252 0.0000 0.0000
										CHANNELS 3 Yrotation Xrotation Zrotation
									}
								}
							}
							JOINT LeftHandPinky1
							{
								OFFSET 0.0713 0.0000 -0.0328
								CHANNELS 3 Yrotation Xrotation Zrotation
								JOINT LeftHandPinky2
								{
									OFFSET 0.0309 0.0000 0.0000
									CHANNELS 3 Yrotation Xrotation Zrotation
									JOINT LeftHandPinky3
									{
										OFFSET 0.0239 0.0000 0.0000
										CHANNELS 3 Yrotation Xrotation Zrotation
									}
								}
							}
							JOINT LeftHandRing1
							{
								OFFSET 0.0799 0.0000 -0.0109
								CHANNELS 3 Yrotation Xrotation Zrotation
								JOINT LeftHandRing2
								{
									OFFSET 0.0374 0.0000 0.0000
									CHANNELS 3 Yrotation Xrotation Zrotation
									JOINT LeftHandRing3
									{
										OFFSET 0.0255 0.0000 0.0000
										CHANNELS 3 Yrotation Xrotation Zrotation
									}
								}
							}
							JOINT LeftHandThumb1
							{
								OFFSET 0.0206 -0.0001 0.0517
								CHANNELS 3 Yrotation Xrotation Zrotation
								JOINT LeftHandThumb2
								{
									OFFSET 0.0328 0.0000 0.0000
									CHANNELS 3 Yrotation Xrotation Zrotation
									JOINT LeftHandThumb3
									{
										OFFSET 0.0260 0.0000 0.0000
										CHANNELS 3 Yrotation Xrotation Zrotation
									}
								}
							}
						}
					}
				}
			}
			JOINT RightShoulder
			{
				OFFSET -0.0380 0.2087 -0.0017
				CHANNELS 3 Yrotation Xrotation Zrotation
				JOINT RightArm
				{
					OFFSET -0.1028 0.0000 0.0000
					CHANNELS 3 Yrotation Xrotation Zrotation
					JOINT RightForeArm
					{
						OFFSET -0.2888 0.0000 0.0000
						CHANNELS 3 Yrotation Xrotation Zrotation
						JOINT RightHand
						{
							OFFSET -0.2596 0.0000 0.0000
							CHANNELS 3 Yrotation Xrotation Zrotation
							JOINT RightHandIndex1
							{
								OFFSET -0.0850 0.0000 0.0328
								CHANNELS 3 Yrotation Xrotation Zrotation
								JOINT RightHandIndex2
								{
									OFFSET -0.0372 0.0000 0.0000
									CHANNELS 3 Yrotation Xrotation Zrotation
									JOINT RightHandIndex3
									{
										OFFSET -0.0265 0.0000 0.0000
										CHANNELS 3 Yrotation Xrotation Zrotation
									}
								}
							}
							JOINT RightHandMiddle1
							{
								OFFSET -0.0850 0.0000 0.0109
								CHANNELS 3 Yrotation Xrotation Zrotation
								JOINT RightHandMiddle2
								{
									OFFSET -0.0414 0.0000 0.0000
									CHANNELS 3 Yrotation Xrotation Zrotation
									JOINT RightHandMiddle3
									{
										OFFSET -0.0252 0.0000 0.0000
										CHANNELS 3 Yrotation Xrotation Zrotation
									}
								}
							}
							JOINT RightHandPinky1
							{
								OFFSET -0.0720 0.0000 -0.0328
								CHANNELS 3 Yrotation Xrotation Zrotation
								JOINT RightHandPinky2
								{
									OFFSET -0.0309 0.0000 0.0000
									CHANNELS 3 Yrotation Xrotation Zrotation
									JOINT RightHandPinky3
									{
										OFFSET -0.0239 0.0000 0.0000
										CHANNELS 3 Yrotation Xrotation Zrotation
									}
								}
							}
							JOINT RightHandRing1
							{
								OFFSET -0.0807 0.0000 -0.0109
								CHANNELS 3 Yrotation Xrotation Zrotation
								JOINT RightHandRing2
								{
									OFFSET -0.0374 0.0000 0.0000
									CHANNELS 3 Yrotation Xrotation Zrotation
									JOINT RightHandRing3
									{
										OFFSET -0.0255 0.0000 0.0000
										CHANNELS 3 Yrotation Xrotation Zrotation
									}
								}
							}
							JOINT RightHandThumb1
							{
								OFFSET -0.0214 -0.0001 0.0517
								CHANNELS 3 Yrotation Xrotation Zrotation
								JOINT RightHandThumb2
								{
									OFFSET -0.0328 0.0000 0.0000
									CHANNELS 3 Yrotation Xrotation Zrotation
									JOINT RightHandThumb3
									{
										OFFSET -0.0260 0.0000 0.0000
										CHANNELS 3 Yrotation Xrotation Zrotation
									}
								}
							}
						}
					}
				}
			}
		}
	}
	JOINT LeftUpLeg
	{
		OFFSET 0.0981 0.0000 0.0000
		CHANNELS 3 Yrotation Xrotation Zrotation
		JOINT LeftLeg
		{
			OFFSET 0.0000 -0.4020 0.0000
			CHANNELS 3 Yrotation Xrotation Zrotation
			JOINT LeftFoot
			{
				OFFSET 0.0000 -0.4028 0.0000
				CHANNELS 3 Yrotation Xrotation Zrotation
				JOINT LeftToeBase
				{
					OFFSET 0.0000 -0.0638 0.1471
					CHANNELS 3 Yrotation Xrotation Zrotation
				}
			}
		}
	}
	JOINT RightUpLeg
	{
		OFFSET -0.0955 0.0000 0.0000
		CHANNELS 3 Yrotation Xrotation Zrotation
		JOINT RightLeg
		{
			OFFSET 0.0000 -0.3912 0.0000
			CHANNELS 3 Yrotation Xrotation Zrotation
			JOINT RightFoot
			{
				OFFSET 0.0000 -0.3920 0.0000
				CHANNELS 3 Yrotation Xrotation Zrotation
				JOINT RightToeBase
				{
					OFFSET 0.0000 -0.0620 0.1432
					CHANNELS 3 Yrotation Xrotation Zrotation
				}
			}
		}
	}
}
MOTION
Frames: 8
Frame Time: 0.0166667
-0.0659 0.8659 0.0462 2.4759 357.2187 358.0569 4.5615 351.4728 357.8975 1.5284 1.8268 359.6618 359.2337 2.9729 0.3906 359.4202 2.6408 3.5834 350.0654 358.4304 8.9316 325.6608 333.5759 319.3890 291.5114 333.7659 15.6131 6.8302 356.6978 8.5350 0.0000 0.0000 0.0000 0.0000 0.0000 0.0000 0.0000 0.0000 0.0000 0.0000 0.0000 0.0000 0.0000 0.0000 0.0000 0.0000 0.0000 0.0000 0.0000 0.0000 0.0000 0.0000 0.0000 0.0000 0.0000 0.0000 0.0000 0.0000 0.0000 0.0000 0.0000 0.0000 0.0000 0.0000 0.0000 0.0000 0.0000 0.0000 0.0000 0.0000 0.0000 0.0000 0.0000 0.0000 0.0000 10.5817 0.3222 355.8081 37.8438 342.4500 32.6298 21.8922 356.7817 3.2559 349.2487 356.0994 359.9157 0.0000 0.0000 0.0000 0.0000 0.0000 0.0000 0.0000 0.0000 0.0000 0.0000 0.0000 0.0000 0.0000 0.0000 0.0000 0.0000 0.0000 0.0000 0.0000 0.0000 0.0000 0.0000 0.0000 0.0000 0.0000 0.0000 0.0000 0.0000 0.0000 0.0000 0.0000 0.0000 0.0000 0.0000 0.0000 0.0000 0.0000 0.0000 0.0000 0.0000 0.0000 0.0000 0.0000 0.0000 0.0000 2.8302 358.4091 7.0234 2.3811 18.6218 1.4383 1.9398 358.1611 355.2295 355.1103 0.1860 359.7637 355.6696 1.0416 356.6316 2.1118 17.3110 5.1340 349.7937 359.2038 0.6753 2.6261 359.7527 359.5231 
-0.0656 0.8659 0.0466 2.4642 357.2504 358.0824 4.7491 351.4419 358.0821 1.5925 1.8419 359.2679 359.0390 2.7787 0.6852 359.3104 2.6422 3.6647 349.7940 358.7733 8.7344 325.2753 334.0059 318.3961 294.5323 333.1279 15.0616 6.7488 356.6794 8.6412 0.0000 0.0000 0.0000 0.0000 0.0000 0.0000 0.0000 0.0000 0.0000 0.0000 0.0000 0.0000 0.0000 0.0000 0.0000 0.0000 0.0000 0.0000 0.0000 0.0000 0.0000 0.0000 0.0000 0.0000 0.0000 0.0000 0.0000 0.0000 0.0000 0.0000 0.0000 0.0000 0.0000 0.0000 0.0000 0.0000 0.0000 0.0000 0.0000 0.0000 0.0000 0.0000 0.0000 0.0000 0.0000 10.5876 359.9363 355.6707 38.3425 341.1379 31.5643 22.2867 356.0680 2.9043 349.3229 356.0073 359.3372 0.0000 0.0000 0.0000 0.0000 0.0000 0.0000 0.0000 0.0000 0.0000 0.0000 0.0000 0.0000 0.0000 0.0000 0.0000 0.0000 0.0000 0.0000 0.0000 0.0000 0.0000 0.0000 0.0000 0.0000 0.0000 0.0000 0.0000 0.0000 0.0000 0.0000 0.0000 0.0000 0.0000 0.0000 0.0000 0.0000 0.0000 0.0000 0.0000 0.0000 0.0000 0.0000 0.0000 0.0000 0.0000 2.8886 358.4009 6.9822 2.3950 18.6205 1.4433 1.9309 358.1505 355.2143 355.1019 0.1816 359.7545 355.7569 1.0349 356.5958 2.1380 17.3046 5.1469 349.7682 359.1875 0.6645 2.6223 359.7751 359.5255 
-0.0654 0.8659 0.0469 2.4525 357.2822 358.1079 4.9366 351.4103 358.2667 1.6564 1.8575 358.8741 358.8433 2.5855 0.9804 359.2007 2.6439 3.7460 349.5214 359.1152 8.5356 324.8831 334.4299 317.4036 297.5768 332.5172 14.4704 6.6674 356.6612 8.7474 0.0000 0.0000 0.0000 0.0000 0.0000 0.0000 0.0000 0.0000 0.0000 0.0000 0.0000 0.0000 0.0000 0.0000 0.0000 0.0000 0.0000 0.0000 0.0000 0.0000 0.0000 0.0000 0.0000 0.0000 0.0000 0.0000 0.0000 0.0000 0.0000 0.0000 0.0000 0.0000 0.0000 0.0000 0.0000 0.0000 0.0000 0.0000 0.0000 0.0000 0.0000 0.0000 0.0000 0.0000 0.0000 10.5943 359.5504 355.5331 38.8712 339.8349 30.4780 22.6859 355.3567 2.5476 349.3983 355.9158 358.7586 0.0000 0.0000 0.0000 0.0000 0.0000 0.0000 0.0000 0.0000 0.0000 0.0000 0.0000 0.0000 0.0000 0.0000 0.0000 0.0000 0.0000 0.0000 0.0000 0.0000 0.0000 0.0000 0.0000 0.0000 0.0000 0.0000 0.0000 0.0000 0.0000 0.0000 0.0000 0.0000 0.0000 0.0000 0.0000 0.0000 0.0000 0.0000 0.0000 0.0000 0.0000 0.0000 0.0000 0.0000 0.0000 2.9469 358.3926 6.9409 2.4088 18.6195 1.4484 1.9220 358.1399 355.1991 355.0936 0.1771 359.7452 355.8441 1.0283 356.5600 2.1643 17.2980 5.1597 349.7426 359.1713 0.6537 2.6185 359.7975 359.5279 
-0.0652 0.8659 0.0474 2.4751 357.3179 358.1179 5.1172 351.3683 358.4220 1.7242 1.8201 358.4381 358.6298 2.4512 1.2831 359.0703 2.6822 3.7476 349.3584 359.5240 8.3515 324.8042 335.3876 315.8163 298.7151 332.2396 14.6048 6.6053 356.6373 8.8521 0.0000 0.0000 0.0000 0.0000 0.0000 0.0000 0.0000 0.0000 0.0000 0.0000 0.0000 0.0000 0.0000 0.0000 0.0000 0.0000 0.0000 0.0000 0.0000 0.0000 0.0000 0.0000 0.0000 0.0000 0.0000 0.0000 0.0000 0.0000 0.0000 0.0000 0.0000 0.0000 0.0000 0.0000 0.0000 0.0000 0.0000 0.0000 0.0000 0.0000 0.0000 0.0000 0.0000 0.0000 0.0000 10.5214 359.1436 355.3533 39.3697 338.4193 29.2531 23.2837 354.6799 2.0415 349.4840 355.8396 358.3585 0.0000 0.0000 0.0000 0.0000 0.0000 0.0000 0.0000 0.0000 0.0000 0.0000 0.0000 0.0000 0.0000 0.0000 0.0000 0.0000 0.0000 0.0000 0.0000 0.0000 0.0000 0.0000 0.0000 0.0000 0.0000 0.0000 0.0000 0.0000 0.0000 0.0000 0.0000 0.0000 0.0000 0.0000 0.0000 0.0000 0.0000 0.0000 0.0000 0.0000 0.0000 0.0000 0.0000 0.0000 0.0000 2.9985 358.3820 6.9142 2.3913 18.6133 1.4573 1.9141 358.0962 355.1563 355.0928 0.1766 359.7545 355.9081 1.0375 356.5362 2.1456 17.2866 5.1719 349.6715 359.1412 0.6306 2.6185 359.7986 359.5281 
-0.0651 0.8659 0.0479 2.4993 357.3538 358.1280 5.2977 351.3257 358.5772 1.7924 1.7833 358.0019 358.4155 2.3180 1.5863 358.9388 2.7205 3.7499 349.1943 359.9321 8.1665 324.6970 336.3430 314.2393 299.8555 331.9597 14.7337 6.5430 356.6136 8.9568 0.0000 0.0000 0.0000 0.0000 0.0000 0.0000 0.0000 0.0000 0.0000 0.0000 0.0000 0.0000 0.0000 0.0000 0.0000 0.0000 0.0000 0.0000 0.0000 0.0000 0.0000 0.0000 0.0000 0.0000 0.0000 0.0000 0.0000 0.0000 0.0000 0.0000 0.0000 0.0000 0.0000 0.0000 0.0000 0.0000 0.0000 0.0000 0.0000 0.0000 0.0000 0.0000 0.0000 0.0000 0.0000 10.4498 358.7369 355.1741 39.9061 337.0138 28.0022 23.8882 354.0083 1.5280 349.5705 355.7640 357.9582 0.0000 0.0000 0.0000 0.0000 0.0000 0.0000 0.0000 0.0000 0.0000 0.0000 0.0000 0.0000 0.0000 0.0000 0.0000 0.0000 0.0000 0.0000 0.0000 0.0000 0.0000 0.0000 0.0000 0.0000 0.0000 0.0000 0.0000 0.0000 0.0000 0.0000 0.0000 0.0000 0.0000 0.0000 0.0000 0.0000 0.0000 0.0000 0.0000 0.0000 0.0000 0.0000 0.0000 0.0000 0.0000 3.0481 358.3718 6.8889 2.3646 18.6079 1.4630 1.9064 358.0525 355.1135 355.0815 0.1704 359.7520 355.9713 1.0467 356.5127 2.1614 17.2667 5.2009 349.6114 359.1180 0.6121 2.6162 359.8139 359.5298 
-0.0649 0.8658 0.0484 2.5234 357.3896 358.1381 5.4782 351.2827 358.7324 1.8608 1.7470 357.5657 358.2005 2.1859 1.8901 358.8074 2.7589 3.7522 349.0289 0.3397 7.9802 324.5620 337.2953 312.6716 300.9979 331.6778 14.8568 6.4806 356.5899 9.0615 0.0000 0.0000 0.0000 0.0000 0.0000 0.0000 0.0000 0.0000 0.0000 0.0000 0.0000 0.0000 0.0000 0.0000 0.0000 0.0000 0.0000 0.0000 0.0000 0.0000 0.0000 0.0000 0.0000 0.0000 0.0000 0.0000 0.0000 0.0000 0.0000 0.0000 0.0000 0.0000 0.0000 0.0000 0.0000 0.0000 0.0000 0.0000 0.0000 0.0000 0.0000 0.0000 0.0000 0.0000 0.0000 10.3794 358.3300 354.9953 40.4819 335.6197 26.7235 24.4998 353.3423 1.0071 349.6577 355.6888 357.5578 0.0000 0.0000 0.0000 0.0000 0.0000 0.0000 0.0000 0.0000 0.0000 0.0000 0.0000 0.0000 0.0000 0.0000 0.0000 0.0000 0.0000 0.0000 0.0000 0.0000 0.0000 0.0000 0.0000 0.0000 0.0000 0.0000 0.0000 0.0000 0.0000 0.0000 0.0000 0.0000 0.0000 0.0000 0.0000 0.0000 0.0000 0.0000 0.0000 0.0000 0.0000 0.0000 0.0000 0.0000 0.0000 3.0977 358.3615 6.8636 2.3379 18.6025 1.4687 1.8986 358.0087 355.0707 355.0701 0.1643 359.7495 356.0346 1.0559 356.4892 2.1772 17.2468 5.2300 349.5514 359.0948 0.5936 2.6138 359.8291 359.5315 
-0.0651 0.8658 0.0492 2.5317 357.4478 358.1470 5.6412 351.2819 358.8548 1.9127 1.7002 357.1940 358.0233 2.1430 2.1828 358.7021 2.7969 3.7459 348.8970 0.7106 7.8996 324.2307 338.7444 311.1280 303.8211 331.1934 13.8144 6.5697 356.6069 8.8306 0.0000 0.0000 0.0000 0.0000 0.0000 0.0000 0.0000 0.0000 0.0000 0.0000 0.0000 0.0000 0.0000 0.0000 0.0000 0.0000 0.0000 0.0000 0.0000 0.0000 0.0000 0.0000 0.0000 0.0000 0.0000 0.0000 0.0000 0.0000 0.0000 0.0000 0.0000 0.0000 0.0000 0.0000 0.0000 0.0000 0.0000 0.0000 0.0000 0.0000 0.0000 0.0000 0.0000 0.0000 0.0000 10.3019 357.9145 354.7364 41.0271 334.5745 25.2336 25.0795 353.0215 0.7576 349.7309 355.6359 357.1772 0.0000 0.0000 0.0000 0.0000 0.0000 0.0000 0.0000 0.0000 0.0000 0.0000 0.0000 0.0000 0.0000 0.0000 0.0000 0.0000 0.0000 0.0000 0.0000 0.0000 0.0000 0.0000 0.0000 0.0000 0.0000 0.0000 0.0000 0.0000 0.0000 0.0000 0.0000 0.0000 0.0000 0.0000 0.0000 0.0000 0.0000 0.0000 0.0000 0.0000 0.0000 0.0000 0.0000 0.0000 0.0000 3.1188 358.3555 6.8801 2.4509 18.6122 1.4707 1.8692 358.0593 355.1020 355.0657 0.1570 359.7491 356.0854 1.0679 356.5017 2.1456 17.2598 5.1939 349.6155 359.0810 0.5966 2.6121 359.8419 359.5338 
-0.0653 0.8658 0.0500 2.5454 357.5074 358.1563 5.8040 351.2807 358.9771 1.9650 1.6536 356.8216 357.8457 2.1008 2.4757 358.5968 2.8349 3.7395 348.7650 1.0805 7.8185 323.8612 340.1847 309.5899 306.6667 330.7546 12.7410 6.6583 356.6241 8.6004 0.0000 0.0000 0.0000 0.0000 0.0000 0.0000 0.0000 0.0000 0.0000 0.0000 0.0000 0.0000 0.0000 0.0000 0.0000 0.0000 0.0000 0.0000 0.0000 0.0000 0.0000 0.0000 0.0000 0.0000 0.0000 0.0000 0.0000 0.0000 0.0000 0.0000 0.0000 0.0000 0.0000 0.0000 0.0000 0.0000 0.0000 0.0000 0.0000 0.0000 0.0000 0.0000 0.0000 0.0000 0.0000 10.2263 357.4994 354.4782 41.6073 333.5426 23.7193 25.6611 352.7030 0.5048 349.8045 355.5834 356.7964 0.0000 0.0000 0.0000 0.0000 0.0000 0.0000 0.0000 0.0000 0.0000 0.0000 0.0000 0.0000 0.0000 0.0000 0.0000 0.0000 0.0000 0.0000 0.0000 0.0000 0.0000 0.0000 0.0000 0.0000 0.0000 0.0000 0.0000 0.0000 0.0000 0.0000 0.0000 0.0000 0.0000 0.0000 0.0000 0.0000 0.0000 0.0000 0.0000 0.0000 0.0000 0.0000 0.0000 0.0000 0.0000 3.1607 358.3449 6.8860 2.4990 18.6089 1.4865 1.8250 358.0263 355.0515 355.0608 0.1495 359.7485 356.1522 1.0823 356.5083 2.1389 17.2411 5.2035 349.5931 359.0339 0.5730 2.6103 359.8546 359.5361 
